<?xml version="1.0" encoding="UTF-8"?>
<svg xmlns="http://www.w3.org/2000/svg" viewBox="0 0 900.01 252.01">
  <defs>
    <style>
      .cls-1 {
        fill: none;
        stroke: #231f20;
        stroke-miterlimit: 10;
        stroke-width: .01px;
      }
    </style>
  </defs>
  <g id="MARK_CUT_bounding_circles_svg_" data-name="MARK/CUT bounding circles (svg)">
    <circle class="cls-1" cx="9.005" cy="9.005" r="9"/>
    <circle class="cls-1" cx="9.005" cy="243.005" r="9"/>
    <circle class="cls-1" cx="891.005" cy="243.005" r="9"/>
    <circle class="cls-1" cx="891.005" cy="9.005" r="9"/>
  </g>
  <g id="MARK_under_board_guide_stubs_png_" data-name="MARK under board guide stubs (png)">
    <path class="cls-1" d="m50.405,43.205h0c-2.365,0-4.551,1.262-5.734,3.311h0c-1.183,2.049-1.183,4.573,0,6.621h0c1.183,2.049,3.369,3.311,5.734,3.311h0c2.365,0,4.551-1.262,5.734-3.311h0c1.183-2.049,1.183-4.573,0-6.621h0c-1.183-2.049-3.369-3.311-5.734-3.311Z"/>
    <path class="cls-1" d="m50.405,194.405h0c-2.365,0-4.551,1.262-5.734,3.311h0c-1.183,2.049-1.183,4.573,0,6.621h0c1.183,2.049,3.369,3.311,5.734,3.311h0c2.365,0,4.551-1.262,5.734-3.311h0c1.183-2.049,1.183-4.573,0-6.621h0c-1.183-2.049-3.369-3.311-5.734-3.311Z"/>
    <path class="cls-1" d="m201.605,43.205h0c-2.365,0-4.551,1.262-5.734,3.311h0c-1.183,2.049-1.183,4.573,0,6.621h0c1.183,2.049,3.369,3.311,5.734,3.311h0c2.365,0,4.551-1.262,5.734-3.311h0c1.183-2.049,1.183-4.573,0-6.621h0c-1.183-2.049-3.369-3.311-5.734-3.311Z"/>
    <path class="cls-1" d="m201.605,194.405h0c-2.365,0-4.551,1.262-5.734,3.311h0c-1.183,2.049-1.183,4.573,0,6.621h0c1.183,2.049,3.369,3.311,5.734,3.311h0c2.365,0,4.551-1.262,5.734-3.311h0c1.183-2.049,1.183-4.573,0-6.621h0c-1.183-2.049-3.369-3.311-5.734-3.311Z"/>
  </g>
</svg>